<svg width="221" height="322" viewBox="0 0 221 322" fill="none" xmlns="http://www.w3.org/2000/svg">
<path d="M0.999995 304.82C1.36 304.17 0.439996 303.49 0.769996 302.82C0.968764 302.422 1.09731 301.992 1.14999 301.55C1.49491 298.827 1.49491 296.072 1.14999 293.35C0.789995 291.15 1.51999 288.89 1.40999 286.65C1.35999 285.76 1.25 284.87 1.17 283.98C1.12582 283.786 1.12582 283.584 1.17 283.39C1.73 282.02 1.3 280.71 1.02 279.39C0.953952 278.605 0.987553 277.816 1.12 277.04C1.18567 276.751 1.20257 276.454 1.17 276.16C0.389995 273.72 1.45999 271.21 1.30999 268.73C1.19999 266.99 1.31 265.25 1.37 263.51C1.37427 263.258 1.32306 263.009 1.21999 262.78C1.02458 262.346 0.923522 261.876 0.923522 261.4C0.923522 260.924 1.02458 260.454 1.21999 260.02C1.41712 259.507 1.46226 258.948 1.35 258.41C1.19417 257.689 1.26195 256.939 1.5443 256.258C1.82664 255.577 2.31008 254.999 2.93 254.6C4.80309 253.021 6.81075 251.609 8.93 250.38C9.91368 249.637 10.8035 248.777 11.58 247.82C12.93 246.54 14.34 245.32 15.66 244.01C16.4528 243.218 17.1787 242.362 17.83 241.45C18.2255 240.864 18.7658 240.391 19.3983 240.075C20.0308 239.76 20.7341 239.613 21.44 239.65C23.95 239.65 26.44 239.35 28.98 239.28C31.27 239.21 33.57 239.28 35.86 239.28C37.73 239.28 39.6 239.11 41.47 239.07C44.73 239.01 47.98 239.02 51.24 238.93C53.74 238.86 56.24 238.63 58.75 238.57C61.26 238.51 63.46 238.57 65.81 238.57C69.12 238.57 72.43 238.46 75.75 238.44C77.75 238.44 79.75 238.5 81.67 238.5C82.2557 238.477 82.8398 238.423 83.42 238.34C84.0482 238.207 84.688 238.137 85.33 238.13C89.76 238.55 94.19 237.92 98.62 238.13C99.9 238.18 101.19 238.04 102.48 238.08C103.77 238.12 104.92 238.28 106.15 238.32C107.15 238.408 108.157 238.378 109.15 238.23C111.734 237.78 114.363 237.639 116.98 237.81C120.024 237.898 123.07 237.791 126.1 237.49C128.283 237.375 130.472 237.415 132.65 237.61C133.018 237.661 133.389 237.688 133.76 237.69C135.289 237.435 136.852 237.465 138.37 237.78C139.185 238.061 140.076 238.018 140.86 237.66C140.912 237.645 140.968 237.645 141.02 237.66C143.63 237.66 146.24 237.75 148.84 237.71C150.48 237.71 152.13 237.56 153.76 237.38C155.772 237.073 157.823 237.117 159.82 237.51C160.49 237.554 161.163 237.507 161.82 237.37C163.14 237.29 164.46 237.21 165.82 237.15C166.72 237.1 167.62 237.15 168.52 237.06C169.05 237.06 169.58 236.87 170.11 236.87C172.46 236.87 174.82 236.87 177.11 237.05C179.831 237.175 182.558 237.065 185.26 236.72C185.891 236.754 186.518 236.851 187.13 237.01C187.691 237.136 188.268 237.173 188.84 237.12C190.602 236.681 192.43 236.576 194.23 236.81C194.74 236.91 195.33 236.55 195.9 236.49C197.916 236.273 199.947 236.236 201.97 236.38C204.08 236.54 206.21 236.38 208.33 236.38C209.39 236.38 210.44 236.6 211.49 236.66C212.54 236.72 213.4 236.66 214.36 236.66C215.32 236.66 216.1 236.56 216.57 237.48C216.614 237.576 216.676 237.663 216.753 237.735C216.83 237.807 216.921 237.863 217.02 237.9C218.46 238.19 218.59 239.29 218.66 240.33C218.81 242.83 218.9 245.33 218.98 247.81C219.11 252.06 219.18 256.3 219.35 260.54C219.5 264.43 219.73 268.32 219.93 272.21C220.13 276.1 220.32 279.79 220.54 283.58C220.54 284.42 220.78 285.26 220.87 286.1C220.922 286.421 220.874 286.751 220.733 287.044C220.592 287.337 220.364 287.58 220.08 287.74C218.86 288.61 217.84 289.74 216.71 290.74C215.11 292.14 213.45 293.48 211.9 294.92C210.82 295.92 209.9 297.09 208.9 298.18C208.37 298.74 207.9 299.32 207.29 299.85C206.52 300.55 205.78 303.85 205.58 304.95C205.503 305.257 205.318 305.527 205.06 305.71C204.801 305.894 204.486 305.979 204.17 305.95C201.5 306.07 198.83 306.22 196.17 306.36H195.52C194.36 306.44 194.16 306.65 194.25 307.77C194.25 308.07 194.25 308.95 192.89 309.58C192.485 309.801 192.117 310.085 191.8 310.42C189.99 312.13 188.17 313.82 186.4 315.56C184.63 317.3 182.92 319.07 181.22 320.87C181.004 321.126 180.739 321.337 180.44 321.49C180.142 321.642 179.816 321.734 179.482 321.759C179.147 321.784 178.811 321.743 178.493 321.636C178.175 321.53 177.882 321.361 177.63 321.14C175.69 319 173.1 317.63 170.72 316.05C167.47 313.88 163.96 312.05 160.55 310.05C158.46 308.85 156.35 307.67 154.26 306.46C153.26 305.9 149.91 306.07 149.26 306.08L130.63 306.43C124.58 306.54 99.3 306 92.72 306.09C85.87 306.19 79.01 306.09 72.16 306.19C67.82 306.25 63.49 306.5 59.16 306.6C54.83 306.7 50.48 306.72 46.16 306.78C40.75 306.86 35.34 307 29.93 307.02C26.61 307.02 23.3 306.87 19.93 306.78C17.53 306.71 15.13 306.57 12.73 306.56C9.89999 306.56 7.05999 306.56 4.23999 306.74C3.04999 306.8 2.12999 306.74 1.62999 305.57C1.45218 305.295 1.24053 305.043 0.999995 304.82ZM216.85 285C216.72 283.84 216.58 283 216.53 282.17C216.37 279.23 216.25 276.28 216.09 273.34C215.99 271.45 215.79 269.56 215.73 267.66C215.59 263.42 215.51 259.18 215.39 254.94C215.32 252.3 215.19 249.67 215.11 247.03C215.06 245.19 215.03 243.34 215.03 241.5C215.03 240.69 214.64 240.3 213.81 240.23C213.55 240.23 213.28 240.16 213.01 240.15C210.07 240.08 207.13 239.91 204.2 239.96C199.6 240.04 195 240.34 190.4 240.41C183.72 240.52 177.03 240.53 170.35 240.56C168.86 240.56 167.35 240.45 165.87 240.47C164.11 240.47 162.35 240.62 160.59 240.68C157.43 240.77 154.28 240.87 151.12 240.93C148.55 240.99 145.98 241.03 143.42 241.02C141.42 241.02 139.36 240.82 137.33 240.84C133.33 240.84 129.44 241 125.49 241.07C120.78 241.15 116.07 241.19 111.37 241.27C105.37 241.37 99.37 241.51 93.37 241.6C90.16 241.66 86.96 241.65 83.75 241.7C80.16 241.75 76.58 241.88 72.99 241.91C70.53 241.91 68.07 241.83 65.61 241.91C59.8367 241.97 54.0633 242.06 48.29 242.18C43.8 242.27 39.29 242.44 34.82 242.37C30.82 242.3 26.82 242.56 22.82 242.69C21.01 242.75 20.36 243.46 20.4 245.14C20.44 246.82 20.4 248.43 20.4 250.08C20.4 252.82 20.55 255.56 20.53 258.31C20.53 263.1 20.35 267.89 20.31 272.69C20.31 276.18 20.31 279.69 20.37 283.17C20.37 284.51 20.59 285.85 20.66 287.17C20.66 287.99 21.15 288.34 21.98 288.34C22.81 288.34 23.48 288.34 24.23 288.34C24.98 288.34 25.62 288.2 26.31 288.24C33.57 288.66 40.86 288.42 48.12 289.05H48.44C49.81 288.95 51.18 288.8 52.56 288.76C56.04 288.68 59.56 288.61 63 288.61C71.35 288.61 79.71 288.61 88.06 288.61C92.06 288.61 95.98 288.5 99.94 288.46C100.57 288.46 101.22 288.58 101.85 288.54C105.96 288.32 110.07 288.1 114.18 287.83C116.151 287.765 118.115 287.568 120.06 287.24C121.939 286.819 123.869 286.671 125.79 286.8C127.484 287.082 129.217 287.028 130.89 286.64C131.251 286.543 131.626 286.505 132 286.53C134.333 286.71 136.678 286.656 139 286.37C140.22 286.213 141.45 286.146 142.68 286.17C145.5 286.17 148.33 286.32 151.15 286.35C151.831 286.403 152.515 286.3 153.15 286.05C153.441 285.868 153.777 285.772 154.12 285.772C154.463 285.772 154.799 285.868 155.09 286.05C156.47 286.81 157.87 287.54 159.23 288.33C163.55 290.837 167.86 293.353 172.16 295.88C175.16 297.63 178.16 299.32 181.07 301.15C183.24 302.51 185.29 304.05 187.39 305.51C187.91 305.88 188.39 306.33 189.12 306.01C189.484 305.875 189.797 305.63 190.016 305.31C190.234 304.989 190.348 304.608 190.34 304.22V303.62C190.27 301.88 190.24 300.14 190.12 298.4C189.967 296.06 189.78 293.727 189.56 291.4C189.547 291.023 189.46 290.653 189.304 290.309C189.148 289.966 188.926 289.657 188.65 289.4C187.65 288.52 188.23 287.4 188.65 286.47C189.07 285.54 189.79 285.55 190.65 285.7C190.967 285.728 191.287 285.711 191.6 285.65C193.19 285.51 194.77 285.32 196.36 285.23C197.26 285.23 198.17 285.33 199.07 285.32C202.07 285.32 205.01 284.61 208.07 285.09C208.335 285.083 208.599 285.056 208.86 285.01H216.86L216.85 285Z" fill="black"/>
<path d="M216.85 285H208.85C208.589 285.046 208.325 285.073 208.06 285.08C205.06 284.6 202.06 285.29 199.06 285.31C198.16 285.31 197.25 285.17 196.35 285.22C194.76 285.31 193.18 285.5 191.59 285.64C191.277 285.701 190.957 285.718 190.64 285.69C189.77 285.54 189 285.59 188.64 286.46C188.28 287.33 187.64 288.51 188.64 289.39C188.916 289.647 189.138 289.956 189.294 290.299C189.45 290.643 189.537 291.013 189.55 291.39C189.77 293.73 189.957 296.063 190.11 298.39C190.23 300.13 190.26 301.87 190.33 303.61V304.21C190.338 304.598 190.224 304.979 190.006 305.3C189.787 305.62 189.474 305.865 189.11 306C188.4 306.32 187.9 305.87 187.38 305.5C185.28 304.04 183.23 302.5 181.06 301.14C178.14 299.31 175.13 297.62 172.15 295.87C167.85 293.35 163.54 290.833 159.22 288.32C157.86 287.53 156.46 286.8 155.08 286.04C154.789 285.858 154.453 285.762 154.11 285.762C153.767 285.762 153.431 285.858 153.14 286.04C152.505 286.29 151.821 286.393 151.14 286.34C148.32 286.34 145.49 286.19 142.67 286.16C141.44 286.137 140.21 286.203 138.99 286.36C136.668 286.646 134.323 286.7 131.99 286.52C131.616 286.495 131.241 286.533 130.88 286.63C129.207 287.018 127.474 287.072 125.78 286.79C123.859 286.661 121.929 286.809 120.05 287.23C118.105 287.558 116.141 287.755 114.17 287.82C110.06 288.09 105.95 288.31 101.84 288.53C101.21 288.53 100.56 288.44 99.93 288.45C95.93 288.45 92.01 288.59 88.05 288.6C79.7 288.6 71.34 288.6 62.99 288.6C59.51 288.6 55.99 288.67 52.55 288.75C51.17 288.75 49.8 288.94 48.43 289.04H48.11C40.85 288.41 33.56 288.65 26.3 288.23C25.61 288.23 24.91 288.32 24.22 288.33C23.53 288.34 22.72 288.33 21.97 288.33C21.22 288.33 20.69 287.98 20.65 287.16C20.58 285.81 20.39 284.47 20.36 283.16C20.36 279.67 20.27 276.16 20.3 272.68C20.3 267.88 20.49 263.09 20.52 258.3C20.52 255.55 20.43 252.81 20.39 250.07C20.39 248.42 20.39 246.77 20.39 245.13C20.39 243.49 21 242.74 22.81 242.68C26.81 242.55 30.81 242.29 34.81 242.36C39.31 242.43 43.81 242.26 48.28 242.17C54.0533 242.05 59.8267 241.96 65.6 241.9C68.06 241.9 70.52 241.98 72.98 241.9C76.57 241.9 80.15 241.74 83.74 241.69C86.95 241.64 90.15 241.69 93.36 241.59C99.36 241.5 105.36 241.36 111.36 241.26C116.06 241.18 120.77 241.14 125.48 241.06C129.43 240.99 133.37 240.86 137.32 240.83C139.32 240.83 141.38 241 143.41 241.01C145.97 241.01 148.54 241.01 151.11 240.92C154.27 240.86 157.42 240.76 160.58 240.67C162.34 240.61 164.1 240.48 165.86 240.46C167.35 240.46 168.86 240.56 170.34 240.55C177.02 240.55 183.71 240.55 190.39 240.4C194.99 240.33 199.59 240.03 204.19 239.95C207.12 239.9 210.06 240.07 213 240.14C213.27 240.14 213.54 240.19 213.8 240.22C214.63 240.29 215.03 240.68 215.02 241.49C215.02 243.33 215.02 245.18 215.1 247.02C215.18 249.66 215.31 252.29 215.38 254.93C215.5 259.17 215.58 263.41 215.72 267.65C215.78 269.55 215.98 271.44 216.08 273.33C216.24 276.27 216.36 279.22 216.52 282.16C216.58 283 216.72 283.83 216.85 285Z" fill="white"/>
<path d="M180.12 281.99C190.337 281.99 198.62 273.994 198.62 264.13C198.62 254.266 190.337 246.27 180.12 246.27C169.903 246.27 161.62 254.266 161.62 264.13C161.62 273.994 169.903 281.99 180.12 281.99Z" fill="#23D8FF"/>
<path d="M35.82 142.32C40.04 142.24 44.27 142.14 48.49 142.08C49.18 142.08 49.87 142.34 50.56 142.33C52.32 142.33 54.07 142.2 55.83 142.19C57 142.19 58.17 142.28 59.34 142.33C59.56 142.33 59.77 142.33 59.99 142.33C62.65 142.25 65.31 142.14 67.99 142.08C69.49 142.08 70.99 142.08 72.49 142.08C74.14 142.08 75.79 142.14 77.49 142.08C79.57 142.03 81.64 141.84 83.72 141.84C85.05 141.84 86.38 142.18 87.72 142.15C90.98 142.07 94.24 142.05 97.5 142.21C98.99 142.29 100.5 141.96 101.98 141.96C104.49 141.96 106.98 142.16 109.5 142.14C111.61 142.14 113.72 141.86 115.84 141.8C117.17 141.8 118.5 141.92 119.84 141.91C123.58 141.91 127.32 141.85 131.05 141.82C133.51 141.82 135.97 141.76 138.43 141.82C139.21 141.82 139.98 142.17 140.77 142.2C141.99 142.25 143.21 142.2 144.43 142.13H146.79C147.92 142.13 149.04 142.18 150.16 142.18C150.79 142.18 151.42 142.02 152.04 142.05C153.143 142.239 154.272 142.201 155.36 141.94C155.568 141.895 155.782 141.895 155.99 141.94C157.99 142.11 159.99 142.34 161.99 142.46C163.15 142.53 164.31 142.39 165.48 142.39C167.38 142.39 169.29 142.48 171.2 142.39C171.98 142.39 172.74 141.95 173.52 141.91C175.65 141.8 177.81 141.91 179.92 141.69C181.881 141.497 183.854 141.463 185.82 141.59C187.494 141.669 189.172 141.555 190.82 141.25C191.565 141.19 192.313 141.17 193.06 141.19C194.75 141.04 196.43 140.85 198.11 140.67C198.32 140.67 198.53 140.58 198.74 140.57C202.32 140.45 205.9 140.25 209.48 140.25C211.83 140.25 214.18 140.52 216.53 140.73C218.26 140.88 218.87 141.73 218.76 143.53C218.717 144.332 218.754 145.136 218.87 145.93C219.863 153.973 220.241 162.08 220 170.18C220 173.49 220 176.81 219.88 180.12C219.716 185.455 219.826 190.796 220.21 196.12C220.21 197.01 220.32 197.83 219.38 198.34C219.286 198.39 219.204 198.458 219.137 198.541C219.07 198.623 219.02 198.718 218.99 198.82C218.76 200.25 217.61 200.89 216.66 201.75C214.55 203.64 212.57 205.67 210.45 207.55C209.14 208.71 207.67 209.68 206.26 210.73C204.85 211.78 203.61 212.53 202.4 213.57C201.8 214.09 201.29 214.24 200.7 213.86C199.34 212.99 197.85 213.12 196.35 213.13C192.55 213.13 188.75 213.25 184.97 213.13C178.18 212.82 171.4 212.32 164.62 211.93C162.8 211.83 160.98 211.93 159.16 211.84L155.31 211.76C153.39 211.7 151.47 211.57 149.55 211.58C146.24 211.58 142.93 211.72 139.63 211.78C139.095 211.78 138.561 211.75 138.03 211.69C136.699 211.528 135.352 211.559 134.03 211.78C132.543 211.954 131.046 212.017 129.55 211.97L116.08 212.34C111.27 212.48 106.46 212.65 101.65 212.77C99.2 212.83 96.74 212.77 94.29 212.86C92.8 212.86 91.29 213.15 89.81 213.2C84.89 213.37 79.97 213.47 75.04 213.65C72.6178 213.594 70.2461 214.347 68.3 215.79C66.6 217.13 64.54 218.01 62.7 219.19C59.5611 221.033 56.5538 223.091 53.7 225.35C52.4455 226.442 50.8843 227.119 49.23 227.29C47.9003 227.419 46.6278 227.894 45.54 228.67C43.82 229.94 42.05 231.13 40.27 232.31C39.8634 232.56 39.4113 232.726 38.94 232.8C38.05 232.99 37.15 233.11 36.25 233.25C34.96 233.46 34.36 232.95 34.33 231.6C34.33 229.6 34.27 227.6 34.21 225.67C34.1033 222.47 33.9733 219.27 33.82 216.07C33.73 214.29 33.26 213.87 31.52 214.07C25.38 214.63 19.22 214.47 13.07 214.53C10.66 214.53 8.24999 214.61 5.84999 214.7C5.37734 214.76 4.91585 214.888 4.47999 215.08C4.12999 215.2 1.13999 215.49 1.21999 213.76C1.21999 212.97 1.21999 212.4 1.21999 210.15C1.30999 205.72 1.61999 201.71 1.33999 197.29C1.26999 196.29 1.33999 195.29 1.33999 194.29C1.26999 191.24 1.25999 188.19 1.06999 185.15C0.919993 182.76 1.43999 179.92 1.21999 177.53C1.12999 176.53 1.21999 175.53 1.21999 174.53C0.919993 170.43 1.35999 166.33 1.02999 162.23C1.02999 162.12 1.02999 161.98 0.969993 161.92C1.22999 160.16 0.639994 159.81 0.859994 158.77C1.07999 157.73 5.95999 153.89 6.26999 153.63C7.08999 152.95 7.97999 152.36 8.76999 151.63C10.56 150.03 12.28 148.34 14.09 146.76C15.15 145.82 16.37 145.06 17.46 144.15C19.0159 142.978 20.9345 142.39 22.88 142.49C26.88 142.39 30.88 142.43 34.88 142.41H35.88L35.82 142.32ZM214.92 144C214.08 144 213.45 144 212.82 144C210.63 144.12 208.45 144.28 206.26 144.41L197 145C194.39 145.17 191.79 145.42 189.17 145.53C185.38 145.7 181.58 145.78 177.79 145.89C174.79 145.99 171.7 146.17 168.65 146.16C162.78 146.16 156.9 145.99 151.02 145.92C147.28 145.92 143.53 145.92 139.78 145.85C136.73 145.85 133.68 145.76 130.63 145.76C125.55 145.76 120.47 145.76 115.39 145.81H98.23C94.59 145.81 90.96 145.81 87.33 145.81C83.48 145.81 79.63 145.81 75.78 145.81C71.18 145.81 66.59 145.88 61.99 145.89C55.3 145.89 48.62 145.89 41.93 145.89C38.25 145.89 34.56 145.72 30.87 145.71C28.87 145.71 26.93 145.81 24.97 145.96C23.64 146.06 22.32 146.32 20.97 146.5C19.97 146.63 19.8 146.77 19.81 147.83C19.81 150.35 19.81 152.83 19.95 155.37C20.1 159.17 20.32 162.97 20.49 166.76C20.68 170.94 20.84 175.11 21.01 179.29C21.14 182.71 21.26 186.14 21.39 189.56C21.48 192.18 21.54 194.81 21.67 197.43C21.75 199.19 21.84 199.24 23.53 199.25C27.6546 199.377 31.7822 199.123 35.86 198.49C36.9612 198.253 38.0837 198.129 39.21 198.12C42.0909 198.338 44.9855 198.302 47.86 198.01C49.3 197.8 49.86 198.41 50.06 199.86C50.268 201.608 50.3415 203.37 50.28 205.13C50.28 208.07 50.61 211.01 50.76 213.95C50.82 215.17 50.76 216.4 50.82 217.63C50.82 219.05 50.93 220.47 51 222.07C51.414 221.923 51.8154 221.742 52.2 221.53C53.95 220.3 55.68 219.03 57.44 217.81C58.7733 216.91 60.1067 216.047 61.44 215.22C63.35 214.06 65.36 213.05 67.2 211.79C69.9 209.95 70.9 208.04 73.52 206.09C74.4531 205.474 75.315 204.756 76.09 203.95C77.09 202.79 79.59 201.44 80.29 200.09C81.29 198.19 82.81 198.25 84.52 198.4C86 198.53 87.52 198.59 88.98 198.59C90.1526 198.471 91.332 198.431 92.51 198.47C93.9102 198.725 95.3431 198.745 96.75 198.53C98.0762 198.349 99.4118 198.246 100.75 198.22C102.67 198.11 104.59 197.95 106.5 197.92C109.57 197.87 112.65 197.92 115.72 197.92C115.879 197.909 116.036 197.882 116.19 197.84C117.19 197.6 118.25 197.16 119.27 197.92C119.41 198.02 119.68 197.92 119.89 197.92C122.32 197.62 124.74 197.17 127.17 197.05C130.43 196.89 133.69 197 136.95 196.98C137.64 196.98 138.33 196.92 139.03 196.85C140.03 196.76 141.03 196.58 142.03 196.55C143.3 196.675 144.58 196.675 145.85 196.55C147.792 196.15 149.788 196.092 151.75 196.38C153.288 196.464 154.83 196.417 156.36 196.24C157.53 196.17 158.7 196.13 159.88 196.1C160.41 196.1 160.94 196.1 161.46 196.15C164.9 196.39 168.37 195.74 171.77 196.63C171.975 196.698 172.195 196.698 172.4 196.63C173.54 196.05 174.59 196.54 175.66 196.83C175.999 196.968 176.374 196.996 176.73 196.91C178.88 195.91 181.15 196.21 183.37 196.36C185.12 196.47 186.87 196.3 188.6 196.36C190.463 196.582 192.344 196.598 194.21 196.41C195.49 196.21 196.85 196.56 198.15 196.41C200.48 196.189 202.828 196.226 205.15 196.52C206.734 196.777 208.344 196.824 209.94 196.66C211.535 196.56 213.135 196.56 214.73 196.66C215.18 196.66 215.62 196.66 216.07 196.66C216.316 194.335 216.383 191.995 216.27 189.66C216.05 186.836 215.99 184.001 216.09 181.17C216.09 176.63 216.19 172.09 216.16 167.55C216.16 163.86 216.01 160.17 215.83 156.48C215.72 154.3 215.41 152.12 215.21 149.94C215.14 149.14 215.14 148.34 215.1 147.54C215.06 146.38 215 145.28 214.92 144Z" fill="black"/>
<path d="M214.92 144C214.99 145.27 215.06 146.37 215.12 147.48C215.12 148.28 215.12 149.08 215.23 149.88C215.43 152.06 215.74 154.24 215.85 156.42C216.03 160.11 216.15 163.8 216.18 167.49C216.18 172.03 216.07 176.57 216.11 181.11C216.01 183.941 216.07 186.776 216.29 189.6C216.403 191.935 216.336 194.275 216.09 196.6C215.64 196.6 215.2 196.6 214.75 196.6C213.155 196.5 211.555 196.5 209.96 196.6C208.364 196.764 206.754 196.717 205.17 196.46C202.848 196.166 200.5 196.129 198.17 196.35C196.87 196.47 195.51 196.12 194.23 196.35C192.364 196.538 190.483 196.522 188.62 196.3C186.89 196.2 185.14 196.37 183.39 196.3C181.17 196.15 178.9 195.85 176.75 196.85C176.394 196.936 176.019 196.908 175.68 196.77C174.61 196.48 173.56 195.99 172.42 196.57C172.215 196.638 171.995 196.638 171.79 196.57C168.39 195.68 164.92 196.33 161.48 196.09C160.96 196.09 160.48 196.03 159.9 196.04C158.72 196.04 157.55 196.11 156.38 196.18C154.85 196.357 153.308 196.404 151.77 196.32C149.808 196.032 147.812 196.09 145.87 196.49C144.6 196.615 143.32 196.615 142.05 196.49C141.05 196.49 140.05 196.7 139.05 196.79C138.35 196.86 137.66 196.92 136.97 196.92C133.71 196.92 130.45 196.83 127.19 196.99C124.76 197.11 122.34 197.56 119.91 197.86C119.7 197.86 119.43 197.94 119.29 197.86C118.29 197.1 117.29 197.54 116.21 197.78C116.056 197.822 115.899 197.849 115.74 197.86C112.67 197.86 109.59 197.81 106.52 197.86C104.61 197.86 102.69 198.05 100.77 198.16C99.4318 198.186 98.0962 198.289 96.77 198.47C95.3631 198.685 93.9302 198.665 92.53 198.41C91.352 198.371 90.1726 198.411 89 198.53C87.52 198.53 86 198.47 84.54 198.34C82.83 198.19 81.28 198.13 80.31 200.03C79.61 201.38 77.94 201.91 76.95 203.03C76.1768 203.838 75.3146 204.556 74.38 205.17C71.77 207.12 69.92 209.85 67.22 211.69C65.38 212.95 63.37 213.96 61.46 215.12C60.0867 215.953 58.7533 216.817 57.46 217.71C55.7 218.93 53.97 220.2 52.22 221.43C51.8299 221.654 51.4219 221.844 51 222C50.93 220.4 50.86 219 50.82 217.56C50.82 216.33 50.82 215.1 50.76 213.88C50.61 210.94 50.3 208 50.28 205.06C50.3415 203.3 50.268 201.538 50.06 199.79C49.83 198.34 49.3 197.73 47.86 197.94C44.9855 198.232 42.0909 198.268 39.21 198.05C38.0837 198.059 36.9612 198.183 35.86 198.42C31.7822 199.053 27.6546 199.307 23.53 199.18C21.84 199.18 21.75 199.12 21.67 197.36C21.54 194.74 21.48 192.11 21.39 189.49C21.26 186.07 21.14 182.64 21.01 179.22C20.84 175.04 20.68 170.87 20.49 166.69C20.32 162.9 20.1 159.1 19.95 155.3C19.85 152.79 19.83 150.3 19.81 147.76C19.81 146.7 19.96 146.56 20.97 146.43C22.29 146.25 23.61 145.99 24.97 145.89C26.97 145.74 28.91 145.63 30.87 145.64C34.56 145.64 38.25 145.79 41.93 145.82C48.62 145.82 55.3 145.82 61.99 145.82C66.59 145.82 71.18 145.76 75.78 145.74C79.63 145.74 83.48 145.74 87.33 145.74C90.96 145.74 94.59 145.74 98.23 145.74H115.39C120.47 145.74 125.55 145.69 130.63 145.69C133.68 145.69 136.73 145.76 139.78 145.78C143.53 145.78 147.28 145.78 151.02 145.85C156.9 145.92 162.78 146.07 168.65 146.09C171.65 146.09 174.74 145.92 177.79 145.82C181.58 145.71 185.38 145.63 189.17 145.46C191.79 145.35 194.39 145.1 197 144.93L206.29 144.39C208.48 144.26 210.66 144.1 212.85 143.98C213.45 144 214.08 144 214.92 144Z" fill="white"/>
<path d="M53.29 188.22C63.4631 188.22 71.71 180.573 71.71 171.14C71.71 161.707 63.4631 154.06 53.29 154.06C43.1169 154.06 34.87 161.707 34.87 171.14C34.87 180.573 43.1169 188.22 53.29 188.22Z" fill="#FD7B7E"/>
<path d="M130.673 107.633C131.323 108.842 131.675 109.732 132.269 110.572C135.068 114.645 138.809 118.511 143.403 122.08C146.057 124.079 148.339 126.219 150.826 128.288C151.141 128.517 151.361 128.78 151.471 129.058C151.582 129.337 151.582 129.625 151.469 129.903C151.357 130.181 151.135 130.443 150.819 130.672C150.504 130.9 150.101 131.09 149.638 131.228C147.007 132.081 144.273 132.839 141.455 133.497C138.282 134.257 134.978 134.857 131.768 135.577C130.737 135.841 129.613 135.985 128.471 135.999C127.33 136.013 126.195 135.896 125.143 135.657C124.204 135.477 123.243 135.334 122.267 135.227C118.092 134.754 114.206 133.722 110.966 132.227C105.955 129.718 100.37 127.528 95.4705 124.959C91.5921 122.959 88.3446 120.52 84.8373 118.27C83.3713 117.271 82.0723 116.271 80.5692 115.381C77.2401 113.18 74.4521 110.758 72.2742 108.172C71.8351 107.549 71.0352 107.017 69.9926 106.657C68.95 106.297 67.72 106.127 66.4845 106.173C60.9174 106.173 55.3503 105.963 49.6718 105.933C45.7377 105.933 41.7851 106.043 37.851 106.133C32.1726 106.253 30.0014 106.373 24.3415 106.523C22.1518 106.583 19.9806 106.773 17.7909 106.823C15.6011 106.873 13.263 106.823 10.999 106.823C9.72059 106.851 8.44845 106.935 7.19482 107.073C3.48342 107.463 1.81329 106.823 1.73907 104.833C1.64628 102.264 1.73906 99.6943 1.85041 97.1248C1.85041 93.1256 2.27722 89.1265 1.9803 85.1273C1.36792 77.8188 1.81329 68.7207 1.36792 61.4523C1.01534 56.6533 0.458632 51.8543 0.0318203 47.0553C-0.33932 42.9361 2.66691 37.5073 2.25866 33.3881C2.01742 30.9886 1.59061 28.5991 1.27514 26.2096C1.25066 25.7292 1.28165 25.2483 1.36792 24.7699C1.69742 23.9324 1.79125 23.073 1.64628 22.2205C0.866884 20.4408 6.45254 15.2219 10.9248 12.2825C11.9083 11.6327 13.3743 11.1628 14.2465 10.4729C17.2527 8.08342 21.8177 6.38377 24.2858 3.75432C24.9113 3.09231 25.7683 2.50161 26.8096 2.01469C27.6632 1.68067 28.6714 1.48002 29.723 1.43481C33.2674 1.21486 36.8304 1.08488 40.3748 0.934914C42.2305 0.854931 44.0862 0.834934 45.9419 0.754951C53.0677 0.47501 60.1565 -0.154858 67.3195 0.0351023C68.2119 0.0289263 69.1026 0.0792605 69.9732 0.185071C71.6761 0.43681 73.4692 0.453998 75.1877 0.235059C77.4537 0.160773 79.728 0.23463 81.961 0.455015C83.2229 0.455015 84.5219 0.455014 85.8023 0.515002C88.957 0.515002 92.1117 0.564991 95.2664 0.574988C95.9715 0.574988 96.6582 0.574988 97.3633 0.574988C99.5207 0.514972 101.682 0.514972 103.84 0.574988C108.585 0.740338 113.344 0.750355 118.092 0.604983C121.132 0.510219 124.181 0.510219 127.222 0.604983C131.36 0.794943 135.461 0.66497 139.562 0.734955C146.502 0.834934 153.443 0.644975 160.383 0.644975C164.837 0.644975 169.272 0.76495 173.725 0.794944C177.567 0.794944 181.427 0.794944 185.286 0.794944C191.503 0.874927 197.72 0.355036 203.973 0.884925C206.479 1.09488 209.076 0.95491 211.693 1.78474C212.626 3.68714 213.106 5.6458 213.122 7.61352C213.493 16.0218 213.92 24.43 214.087 32.8482C214.18 37.4973 213.771 42.1563 213.697 46.8453C213.697 50.5945 213.697 54.3437 213.864 58.093C214.105 65.0915 214.439 72.0001 214.773 78.9586C214.959 82.7078 215.2 86.447 215.46 90.1963C215.46 90.9261 216.035 91.6659 215.998 92.3958C215.887 93.9155 214.866 94.3954 212.176 94.7753C210.951 94.9232 209.803 95.217 208.817 95.6351C201.765 98.8644 194.806 102.134 187.81 105.383C186.496 106.029 185.095 106.62 183.616 107.153C182.682 107.434 181.625 107.575 180.554 107.563C173.41 107.473 166.265 107.253 159.121 107.233C152.793 107.233 146.465 107.413 140.119 107.523L130.673 107.633ZM208.279 89.3064C208.279 88.6566 208.279 88.1467 208.279 87.6368C208.279 87.1269 207.778 86.3671 207.759 85.7372C207.759 83.2177 207.759 80.7382 207.759 78.1988C207.629 75.0994 207.258 72.0001 207.109 68.9007C206.961 65.8013 206.98 62.582 206.924 59.4227C206.924 55.8934 206.72 52.3642 206.757 48.8449C206.757 46.9253 207.239 44.9957 207.276 43.0761C207.276 39.0769 207.276 35.0778 207.276 31.0786C207.091 24.7466 206.85 18.4146 206.553 12.0826C206.441 9.73307 206.015 7.38356 205.773 5.08405C205.773 4.30421 205.142 3.93429 203.565 3.96428C197.219 4.06426 190.854 4.17424 184.507 4.17424C176.657 4.17424 168.789 4.03427 160.94 4.01427C156.764 4.01427 152.589 4.16424 148.414 4.13425C136.426 4.03427 124.419 3.8743 112.432 3.75432C110.854 3.75432 109.258 3.83431 107.681 3.82431C102.522 3.82431 97.3633 3.75432 92.223 3.73433C88.7551 3.82939 85.2805 3.82939 81.8126 3.73433C74.7111 3.23974 67.5313 3.15929 60.3978 3.49438C58.2466 3.68625 56.0789 3.81973 53.9028 3.8943C46.8652 4.02341 39.8525 4.41426 32.9148 5.06405C30.9107 5.22402 30.5024 5.48396 30.4282 6.51375C30.2612 8.98323 30.0014 11.4427 30.0571 13.9022C30.1313 17.8614 30.3292 21.8205 30.6509 25.7797C31.2694 33.0049 31.9561 40.2267 32.7107 47.4452C33.6571 56.1134 34.8633 64.7616 35.6613 73.4398C36.0881 78.0888 35.9211 82.7578 36.051 87.4368C36.0631 88.0768 36.1686 88.7153 36.3664 89.3464C36.719 90.3462 37.0902 90.4762 38.983 90.3462C40.8758 90.2162 42.6944 90.0863 44.5501 90.0763C50.0058 90.0763 55.4616 90.0763 60.9174 90.0763C67.468 90.0763 74.0186 90.0263 80.5692 90.0163C83.2786 90.0163 85.0786 90.6062 85.1343 92.0159C85.4654 93.7774 86.3371 95.4971 87.7137 97.1048C89.4765 99.8347 91.54 102.506 93.8932 105.103C96.4911 107.793 99.7943 110.302 102.856 112.871C103.782 113.621 104.785 114.342 105.862 115.031C108.793 116.768 112.123 118.297 115.772 119.58C121.97 121.998 128.679 124.012 135.758 125.579C136.704 125.789 137.725 125.919 139.117 126.159C138.967 125.861 138.775 125.57 138.541 125.289C136.964 123.929 135.442 122.559 133.754 121.29C128.46 117.13 124.838 112.42 123.12 107.463C122.805 106.623 122.824 105.753 122.564 104.913C121.387 101.094 121.96 97.178 124.234 93.5056C124.795 92.416 126.05 91.4676 127.778 90.8261C128.719 90.5384 129.608 90.2037 130.432 89.8263C131.245 89.427 132.214 89.1301 133.266 88.9572C134.319 88.7843 135.43 88.7397 136.519 88.8265C139.098 88.8265 141.677 88.9465 144.238 88.8265C153.74 88.4766 163.259 88.6266 172.76 88.7565C174.727 88.7565 176.713 88.6466 178.68 88.6866C181.853 88.7466 185.008 88.8965 188.181 89.0065C192.338 89.1465 196.495 89.3264 200.67 89.4064C203.101 89.4664 205.495 89.3564 208.279 89.3064Z" fill="black"/>
<path d="M194.66 289.91C197.3 288.91 200.01 289.23 202.6 288.8C202.677 288.838 202.743 288.894 202.793 288.964C202.843 289.034 202.875 289.115 202.886 289.2C202.897 289.285 202.886 289.372 202.856 289.452C202.825 289.532 202.775 289.604 202.71 289.66C201.95 290.58 201.19 291.5 200.36 292.36C200.023 292.765 199.563 293.05 199.05 293.17C197.68 293.31 196.28 293.28 194.9 293.3C194.79 293.3 194.68 293.17 194.57 293.09C194.257 292.048 194.288 290.932 194.66 289.91Z" fill="black"/>
<path d="M58.33 254.62H68.93C70 254.62 71.06 254.57 72.13 254.55C74.66 254.55 77.2 254.43 79.73 254.42C82.86 254.42 85.99 254.42 89.12 254.42C90.05 254.42 90.98 254.42 91.92 254.42L100.92 254.32C103.92 254.27 106.92 254.19 109.92 254.15C113.65 254.15 117.38 254.09 121.12 254.02C124.32 254.02 127.52 253.84 130.72 253.79C133.45 253.74 136.17 253.53 138.91 253.57C140.83 253.57 142.77 253.43 144.7 253.35L146.9 253.28C148.24 253.28 149.23 253.74 149.27 254.49C149.31 255.24 149.27 256.1 149.21 256.9C149.192 257.099 149.134 257.293 149.04 257.47C148.8 257.93 148.4 258.12 147.57 258.11C146.74 258.1 146 258 145.2 258C144.256 257.836 143.283 257.983 142.43 258.42C142.129 258.528 141.809 258.573 141.49 258.55C135.82 258.64 130.15 258.76 124.49 258.78C120.76 258.78 117.03 258.85 113.29 258.9C107.75 258.96 102.22 259.15 96.71 259.42C89.37 259.78 82.04 259.84 74.71 259.96C71.04 260.02 67.37 259.96 63.71 259.96C56.71 259.96 49.71 259.89 42.71 259.87C40.25 259.87 37.78 259.92 35.31 259.94C33.91 259.94 33.31 259.69 32.92 258.88C32.53 258.07 32.21 257.17 31.92 256.31C31.82 256.06 32.01 255.82 32.37 255.71C32.9719 255.518 33.5917 255.387 34.22 255.32C36.01 255.19 37.81 255.11 39.61 255.04C41.88 254.95 44.14 254.88 46.41 254.83C48.94 254.76 51.47 254.73 54 254.68L58.4 254.59L58.33 254.62Z" fill="black"/>
<path d="M180.14 245C183.507 244.866 186.851 245.614 189.84 247.17C191.928 248.495 193.758 250.189 195.24 252.17C196.06 253.17 196.74 254.17 197.51 255.23C198.611 256.703 199.411 258.379 199.864 260.162C200.317 261.945 200.414 263.8 200.15 265.62C199.855 268.407 199.164 271.137 198.1 273.73C197.062 276.204 195.376 278.353 193.22 279.95C190.025 282.305 186.126 283.507 182.16 283.36C179.441 283.355 176.741 282.916 174.16 282.06C170.689 281.043 167.455 279.343 164.65 277.06C163.167 275.708 161.896 274.14 160.88 272.41C160.55 271.756 160.356 271.041 160.31 270.31C160.08 268.72 159.91 267.13 159.74 265.54C159.367 261.87 160.043 258.17 161.69 254.87C162.404 253.655 163.348 252.592 164.47 251.74C167.253 249.246 170.474 247.29 173.97 245.97C174.969 245.606 176.006 245.351 177.06 245.21C178.13 245.06 179.27 245.05 180.14 245ZM174.91 268C174.575 267.592 174.265 267.164 173.98 266.72C173.237 265.602 172.886 264.269 172.98 262.93C173.159 261.536 173.67 260.206 174.47 259.05C174.88 258.435 175.451 257.944 176.12 257.63C177.311 257.102 178.596 256.816 179.899 256.789C181.202 256.761 182.497 256.993 183.71 257.47C184.014 257.61 184.3 257.788 184.56 258C185.397 258.619 186.058 259.445 186.479 260.397C186.899 261.349 187.065 262.394 186.96 263.43C186.919 264.028 186.818 264.621 186.66 265.2C186.333 266.553 186.522 267.979 187.19 269.2C187.584 269.966 187.918 270.762 188.19 271.58C188.84 273.46 189.78 275.25 189.94 277.28C189.94 277.38 190.1 277.47 190.21 277.59C190.4 277.59 190.64 277.59 190.77 277.47C192.648 276.19 194.189 274.474 195.26 272.47C196.174 270.47 196.791 268.348 197.09 266.17C197.286 265.121 197.393 264.057 197.41 262.99C197.53 260.841 196.932 258.712 195.71 256.94C194.42 255.24 193.06 253.6 191.77 251.94C190.286 250.085 188.13 248.891 185.77 248.62C185.05 248.49 184.31 248.42 183.59 248.28C181.88 247.981 180.13 247.981 178.42 248.28C176.112 248.653 173.897 249.461 171.89 250.66C169.472 251.948 167.242 253.559 165.26 255.45C164.445 256.247 163.841 257.233 163.5 258.32C162.835 260.211 162.514 262.206 162.55 264.21C162.68 265.87 162.8 267.53 162.9 269.21C162.978 270.339 163.294 271.44 163.828 272.438C164.363 273.436 165.103 274.309 166 275C167.371 276.183 168.957 277.093 170.67 277.68C171.029 277.762 171.393 277.822 171.76 277.86C171.76 275.44 172.76 273.49 173.63 271.47C174.08 270.33 174.46 269.19 174.91 268ZM187.31 279C187.19 277.83 187.09 276.85 186.97 275.86C186.934 275.463 186.857 275.071 186.74 274.69C186.16 273.13 185.57 271.57 184.95 270.03C184.769 269.643 184.562 269.269 184.33 268.91H179.33C178.85 269.45 178.46 270.27 177.57 270.55C177.36 270.62 177.19 270.92 177.08 271.15C176.133 272.987 175.359 274.909 174.77 276.89C174.633 277.253 174.569 277.64 174.583 278.028C174.597 278.416 174.688 278.797 174.85 279.15C178.932 280.295 183.257 280.243 187.31 279ZM175.84 263.51C176.47 264.01 177.07 264.41 177.6 264.9C178.51 265.689 179.686 266.104 180.89 266.06C181.626 266.073 182.343 265.825 182.914 265.36C183.485 264.895 183.873 264.243 184.01 263.52C184.114 262.798 184.147 262.068 184.11 261.34C184.114 261.043 184.017 260.754 183.835 260.52C183.654 260.286 183.398 260.12 183.11 260.05C181.329 259.444 179.381 259.566 177.69 260.39C177.386 260.522 177.111 260.714 176.883 260.955C176.654 261.195 176.476 261.479 176.36 261.79C176.11 262.36 176 262.94 175.84 263.53V263.51Z" fill="black"/>
<path d="M34.87 271.4C35.18 270.31 35.45 269.4 35.73 268.4C35.8134 267.934 36.0729 267.519 36.4546 267.239C36.8364 266.96 37.311 266.838 37.78 266.9C38.44 266.9 39.11 266.9 39.78 266.9C43.98 266.9 48.17 267.03 52.36 267.01C54.4216 267.135 56.4907 267.004 58.52 266.62C58.8729 266.504 59.2558 266.522 59.5967 266.669C59.9375 266.816 60.2126 267.083 60.37 267.42C60.776 268.174 61.1108 268.964 61.37 269.78C61.66 270.66 61.83 271.58 62.05 272.48C62.27 273.38 61.92 274 61 274C60.08 274 59.4 274 58.6 274L52.43 273.74L49.64 273.63C45.58 273.52 41.52 273.37 37.46 273.32C36.8823 273.309 36.3224 273.118 35.8582 272.774C35.3941 272.429 35.0486 271.949 34.87 271.4Z" fill="black"/>
<path d="M198.82 161C199.201 161.49 199.461 162.064 199.577 162.674C199.693 163.284 199.664 163.913 199.49 164.51C199.421 164.966 199.398 165.429 199.42 165.89C199.446 166.222 199.396 166.555 199.274 166.865C199.151 167.175 198.96 167.453 198.714 167.677C198.468 167.902 198.174 168.068 197.855 168.162C197.535 168.256 197.198 168.276 196.87 168.22C194.61 168.16 192.33 168.22 190.08 168.06C187.61 167.86 185.17 168.18 182.72 168.06C180.27 167.94 177.78 167.99 175.32 167.99C172.86 167.99 170.38 167.99 167.92 168.05C161.25 168.05 154.59 168.15 147.92 168.14C142.19 168.14 136.46 167.84 130.74 167.45C127.68 167.24 124.62 167.08 121.55 166.93C118.16 166.77 114.75 166.79 111.37 166.46C106.711 166.121 102.038 166.038 97.37 166.21C94.1 166.21 90.84 166.47 87.58 166.65C86.852 166.724 86.1324 166.865 85.43 167.07C85.2086 167.158 84.963 167.164 84.7375 167.087C84.512 167.01 84.3213 166.855 84.2 166.65C83.8783 166.156 83.6511 165.607 83.53 165.03C83.4383 164.233 83.4015 163.431 83.42 162.63C83.4161 162.328 83.4917 162.031 83.6391 161.767C83.7866 161.504 84.0007 161.284 84.26 161.13C85.327 160.431 86.5852 160.081 87.86 160.13C92.73 160.04 97.59 160.04 102.46 160.03C106.46 160.03 110.46 160.03 114.46 160.08C120.333 160.2 126.19 160.533 132.03 161.08C136.2 161.48 140.42 161.48 144.61 161.65C145.21 161.65 145.81 161.65 146.41 161.65C151.54 161.86 156.67 161.65 161.8 161.65C165.46 161.65 169.12 161.65 172.8 161.56C179.13 161.49 185.47 161.56 191.8 161.22C193.733 161.287 195.668 161.173 197.58 160.88C197.997 160.845 198.417 160.886 198.82 161Z" fill="black"/>
<path d="M151.61 181H147.61H136.61C132.27 181 127.94 181 123.61 181C120.75 181 117.88 181.3 115.02 181.37C112.68 181.43 110.35 181.37 108.02 181.37C103.83 181.45 99.63 181.51 95.44 181.7C92.31 181.84 89.19 182.16 86.07 182.43C85.7431 182.496 85.4038 182.462 85.0967 182.332C84.7896 182.201 84.5293 181.981 84.35 181.7C84.2 181.48 84.05 181.26 83.84 180.98C84.0901 179.894 84.0901 178.766 83.84 177.68C83.779 177.347 83.7996 177.003 83.9 176.68C83.9464 176.277 84.1389 175.905 84.4411 175.634C84.7433 175.363 85.1342 175.212 85.54 175.21C85.8729 175.185 86.2071 175.185 86.54 175.21C89.28 175.21 92.01 175.21 94.75 175.32C99.55 175.45 104.35 175.69 109.16 175.74C113.03 175.74 116.9 175.6 120.76 175.51C122.3 175.51 123.83 175.36 125.36 175.34C129.43 175.34 133.5 175.17 137.57 175.44C139.17 175.503 140.773 175.426 142.36 175.21C144.81 174.93 147.3 175.28 149.71 174.58C149.971 174.498 150.253 174.511 150.506 174.617C150.759 174.724 150.966 174.916 151.09 175.16C151.37 175.529 151.543 175.969 151.59 176.43C151.595 177.561 151.675 178.69 151.83 179.81C151.797 180.213 151.723 180.612 151.61 181Z" fill="black"/>
<path d="M187.31 279C183.257 280.243 178.932 280.295 174.85 279.15C174.688 278.797 174.597 278.416 174.583 278.028C174.569 277.64 174.633 277.253 174.77 276.89C175.359 274.909 176.133 272.987 177.08 271.15C177.19 270.92 177.36 270.62 177.57 270.55C178.46 270.27 178.85 269.45 179.33 268.91H184.33C184.562 269.269 184.769 269.643 184.95 270.03C185.57 271.57 186.16 273.13 186.74 274.69C186.857 275.071 186.934 275.463 186.97 275.86C187.09 276.87 187.19 277.85 187.31 279Z" fill="white"/>
<path d="M175.84 263.53C176 262.94 176.11 262.36 176.32 261.81C176.436 261.499 176.614 261.215 176.843 260.975C177.071 260.734 177.346 260.542 177.65 260.41C179.341 259.586 181.289 259.464 183.07 260.07C183.358 260.14 183.614 260.306 183.795 260.54C183.977 260.774 184.074 261.063 184.07 261.36C184.107 262.088 184.074 262.818 183.97 263.54C183.833 264.263 183.445 264.915 182.874 265.38C182.303 265.845 181.586 266.093 180.85 266.08C179.646 266.124 178.47 265.709 177.56 264.92C177.07 264.43 176.47 264 175.84 263.53Z" fill="white"/>
<path d="M61.25 185.27C59.61 186.27 57.83 186.27 56.14 186.5C55.22 186.65 54.28 186.65 53.35 186.72C50.2036 186.84 47.0863 186.078 44.35 184.52C44.2215 184.218 44.1553 183.893 44.1553 183.565C44.1553 183.237 44.2215 182.912 44.35 182.61C44.735 181.546 45.179 180.504 45.68 179.49C46.26 178.37 46.95 177.3 47.61 176.22C47.765 175.924 47.9565 175.648 48.18 175.4C49.8 173.79 49.48 173.81 51.42 174.4C51.68 174.48 51.94 174.51 52.2 174.58C52.9889 174.854 53.8253 174.967 54.6587 174.91C55.4921 174.853 56.3055 174.629 57.05 174.25C57.67 174.34 57.92 174.85 58.15 175.31C59.4561 177.64 60.3269 180.188 60.72 182.83C60.82 183.59 61.06 184.35 61.25 185.27Z" fill="white"/>
<path d="M49.41 170.54C49.18 169.76 48.98 169.13 48.8 168.54C48.6421 168.174 48.6321 167.762 48.7719 167.389C48.9117 167.016 49.1906 166.712 49.55 166.54C50.614 165.845 51.8415 165.442 53.11 165.37C53.38 165.37 53.65 165.37 53.91 165.37C55.91 165.37 55.78 165.53 56.47 167.71C56.656 168.291 56.6187 168.92 56.3654 169.475C56.112 170.03 55.6608 170.47 55.1 170.71C54.5549 171.035 53.9503 171.248 53.3216 171.335C52.693 171.423 52.0532 171.384 51.44 171.22C50.8 171 50.17 170.78 49.41 170.54Z" fill="white"/>
<path d="M73.38 169.87C73.4484 173.014 73.0198 176.149 72.11 179.16C71.9381 179.667 71.7029 180.151 71.41 180.6C70.58 181.97 69.75 183.33 68.87 184.67C67.9394 186.069 66.6278 187.172 65.09 187.85C61.5381 189.417 57.6804 190.169 53.8 190.05C48.8956 189.947 44.1466 188.31 40.22 185.37C39.5716 184.906 38.9506 184.405 38.36 183.87C37.4933 183.136 36.8462 182.178 36.49 181.1C36.3208 180.522 36.0788 179.967 35.77 179.45C35.0783 178.228 34.6173 176.889 34.41 175.5C33.8829 173.036 33.6446 170.519 33.7 168C33.7722 166.132 34.2234 164.298 35.0262 162.61C35.829 160.922 36.9667 159.415 38.37 158.18C40.9381 155.941 43.8886 154.183 47.08 152.99C48.9822 152.356 50.9894 152.098 52.99 152.23C56.2629 152.294 59.5069 152.857 62.61 153.9C65.111 154.633 67.3561 156.054 69.09 158C69.71 158.7 70.29 159.43 70.89 160.14C71.4997 160.855 71.9376 161.699 72.17 162.61C72.9325 164.956 73.3403 167.403 73.38 169.87ZM63.8 184.36C64.8326 183.832 65.7424 183.093 66.47 182.19C68.3011 179.881 69.565 177.176 70.16 174.29C70.78 171.281 70.78 168.178 70.16 165.17C69.8402 163.464 69.0975 161.865 68 160.52C66.45 158.67 64.79 157.15 62.31 156.78C61.7167 156.682 61.1341 156.528 60.57 156.32C59.1774 155.852 57.7191 155.609 56.25 155.6C55.1823 155.627 54.1139 155.593 53.05 155.5C51.1861 155.246 49.2901 155.597 47.64 156.5C46.7881 156.883 45.96 157.317 45.16 157.8C43.0873 159.008 41.1438 160.425 39.36 162.03C37.6377 163.736 36.6082 166.019 36.47 168.44C36.19 171.44 36.92 174.44 37.6 177.34C37.8221 178.037 38.202 178.673 38.71 179.2C39.3589 179.872 39.8477 180.682 40.14 181.57C40.28 182.05 40.48 182.62 41.25 182.69C41.94 181.58 42.02 180.2 42.61 179.03C43.2 177.86 43.85 176.52 44.51 175.28C45.3175 174.185 45.9891 172.996 46.51 171.74C45.95 170.64 45.36 169.52 45.85 168.19C45.8789 167.925 45.8585 167.657 45.79 167.4C45.7079 166.759 45.7949 166.108 46.0422 165.512C46.2896 164.916 46.6887 164.394 47.2 164C48.2226 163.187 49.4084 162.603 50.6767 162.289C51.945 161.975 53.266 161.938 54.55 162.18C55.2164 162.283 55.8536 162.525 56.4204 162.89C56.9872 163.255 57.4708 163.736 57.84 164.3C58.5164 165.177 58.9909 166.194 59.2294 167.276C59.4679 168.358 59.4647 169.479 59.22 170.56C59.0712 171.032 59.0363 171.533 59.118 172.021C59.1996 172.51 59.3957 172.972 59.69 173.37C61.6939 176.234 62.9831 179.536 63.45 183C63.5437 183.459 63.6605 183.913 63.8 184.36ZM61.25 185.27C61.06 184.35 60.82 183.59 60.74 182.81C60.3469 180.168 59.4761 177.62 58.17 175.29C57.94 174.83 57.69 174.29 57.07 174.23C56.3255 174.609 55.5121 174.833 54.6787 174.89C53.8452 174.947 53.009 174.834 52.22 174.56C51.96 174.49 51.7 174.46 51.44 174.38C49.5 173.81 49.82 173.79 48.2 175.38C47.9765 175.628 47.785 175.904 47.63 176.2C46.97 177.28 46.28 178.35 45.7 179.47C45.199 180.484 44.755 181.526 44.37 182.59C44.2415 182.892 44.1753 183.217 44.1753 183.545C44.1753 183.873 44.2415 184.198 44.37 184.5C47.1063 186.058 50.2236 186.82 53.37 186.7C54.3 186.63 55.24 186.63 56.16 186.48C57.83 186.23 59.61 186.31 61.25 185.27ZM49.41 170.54C50.17 170.78 50.8 171 51.41 171.17C52.0232 171.334 52.663 171.373 53.2916 171.285C53.9203 171.198 54.525 170.985 55.07 170.66C55.6308 170.42 56.082 169.98 56.3354 169.425C56.5887 168.87 56.626 168.241 56.44 167.66C55.75 165.48 55.92 165.34 53.88 165.32C53.62 165.32 53.35 165.32 53.08 165.32C51.8115 165.392 50.584 165.795 49.52 166.49C49.1606 166.661 48.8817 166.966 48.7419 167.339C48.6021 167.712 48.6121 168.124 48.77 168.49C49 169.13 49.18 169.76 49.41 170.54Z" fill="black"/>
<path d="M35.6354 66.749L31 6.00797V4L207.146 4.50199L209 89.8406L130.198 91.3466C122.618 108.51 127.871 116.623 144.104 130C111.047 122.696 97.1365 114.675 82.9167 91.3466H35.6354V66.749Z" fill="white" stroke="black"/>
<path d="M166.464 52.7449H167.455C168.188 55.8329 168.175 57.5989 167.455 60.8135H154.149C155.045 58.0248 155.059 56.2895 153.795 52.7449H166.464ZM166.464 52.7449C164.688 44.6075 161.213 41.6705 152.592 38.0231C129.687 21.0019 117.329 20.3194 96.3233 38.0231C66.6612 40.6216 56.0919 43.325 59.5897 52.7449M59.5897 52.7449H57.8202C56.6411 56.0229 56.8156 57.7903 57.8202 60.8843H72.8959C72.3055 57.702 72.198 55.9186 73.3913 52.7449H59.5897ZM134.402 54.4435H92.8552C93.2386 56.6808 93.2026 57.8824 92.8552 59.9642H134.402C133.916 58.1377 133.788 57.0157 134.402 54.4435Z" stroke="black" stroke-width="2.23135"/>
<circle cx="83.0171" cy="57.0625" r="1.11568" fill="#FD7B7E" stroke="black" stroke-width="0.741311"/>
<circle cx="144.452" cy="57.0625" r="1.11568" fill="#FD7B7E" stroke="black" stroke-width="0.741311"/>
<circle cx="82.8048" cy="57.1336" r="5.39588" fill="#FD7B7E" stroke="black" stroke-width="2.23135"/>
<circle cx="144.24" cy="57.1336" r="5.39588" fill="#FD7B7E" stroke="black" stroke-width="2.23135"/>
<circle cx="82.8756" cy="56.9209" r="9.28865" fill="#FD7B7E" stroke="black" stroke-width="2.23135"/>
<circle cx="144.311" cy="56.9209" r="9.28865" fill="#FD7B7E" stroke="black" stroke-width="2.23135"/>
<path d="M96.4649 38.0935H152.45" stroke="black" stroke-width="2.23135"/>
<path d="M98.8644 36.9041C117.51 22.9415 128.772 22.6506 150.448 36.9041H98.8644Z" fill="white"/>
</svg>
