<svg width="42" height="42" viewBox="0 0 42 42" fill="none" xmlns="http://www.w3.org/2000/svg">
<circle cx="21.1731" cy="20.9998" r="20.4808" fill="white"/>
<path fill-rule="evenodd" clip-rule="evenodd" d="M30.1334 21.0536C30.1334 16.1054 26.1213 12.0933 21.1731 12.0933C16.2249 12.0933 12.2127 16.1054 12.2127 21.0536C12.2127 25.5258 15.4889 29.2327 19.773 29.9055V23.6445H17.4973V21.0536H19.773V19.0791C19.773 16.8338 21.1111 15.5926 23.1575 15.5926C24.138 15.5926 25.1636 15.7678 25.1636 15.7678V17.9731H24.0332C22.9207 17.9731 22.5727 18.6635 22.5727 19.3731V21.054H25.0576L24.6608 23.6449H22.5727V29.9063C26.8573 29.2339 30.1334 25.527 30.1334 21.0536Z" fill="#010101"/>
</svg>
