<svg width="141" height="48" viewBox="0 0 141 48" fill="none" xmlns="http://www.w3.org/2000/svg">
<path d="M59.3573 16.292C58.2678 16.292 57.2691 16.5644 56.325 17.0728C55.3808 17.5812 54.5637 18.3257 53.8737 19.2698H53.8192V16.6007H48.953V34.7583H53.8192V26.3332C53.8192 24.9532 54.2187 23.8093 55.0358 22.9195C55.8529 22.048 56.9968 21.594 58.4494 21.594C58.8125 21.594 59.2483 21.6122 59.7386 21.6485V16.3102C59.666 16.3102 59.5389 16.292 59.3573 16.292ZM73.7715 16.6007V18.6525H73.6989C72.3371 17.0909 70.5576 16.292 68.3424 16.292C67.144 16.292 66.0001 16.528 64.9469 17.0001C63.8938 17.4722 62.9859 18.1259 62.2233 18.943C61.4607 19.7783 60.8796 20.7769 60.4438 21.939C60.008 23.1193 59.7902 24.3903 59.7902 25.734C59.7902 27.1139 60.008 28.4031 60.4438 29.5652C60.8796 30.7273 61.4788 31.726 62.2414 32.5249C63.0041 33.3238 63.9301 33.9594 65.0014 34.3951C66.0727 34.8491 67.2348 35.067 68.4877 35.067C70.8118 35.067 72.6094 34.2317 73.9168 32.5612H74.0076V34.7583H78.6378V16.6007H73.7715ZM69.3774 30.7092C67.9974 30.7092 66.8898 30.2552 66.0182 29.3292C65.1467 28.4213 64.729 27.2229 64.729 25.7521C64.729 24.2269 65.1648 23.0103 66.0545 22.0661C66.9443 21.1401 68.0519 20.668 69.3955 20.668C70.7029 20.668 71.7923 21.1582 72.6639 22.1206C73.5355 23.1011 73.9713 24.2995 73.9713 25.7521C73.9713 27.2229 73.5173 28.4213 72.6458 29.3292C71.756 30.2552 70.6666 30.7092 69.3774 30.7092ZM92.1804 16.292C89.8563 16.292 88.0224 17.0909 86.6787 18.6888H86.6061V16.6007H81.7398V42.1121H86.6061V32.7246H86.6787C87.9679 34.2862 89.7473 35.067 92.0352 35.067C93.2699 35.067 94.432 34.8491 95.5033 34.3951C96.5746 33.9594 97.5006 33.3238 98.2633 32.5249C99.0259 31.726 99.6432 30.7273 100.079 29.5652C100.515 28.4031 100.733 27.1139 100.733 25.734C100.733 24.6445 100.587 23.6277 100.315 22.6472C100.025 21.6667 99.6251 20.7951 99.1167 20.0325C98.6082 19.2698 97.9909 18.598 97.3009 18.0351C96.5928 17.4722 95.7938 17.0365 94.9222 16.7459C94.0507 16.4554 93.1246 16.292 92.1804 16.292ZM91.1455 30.7092C90.2557 30.7092 89.4568 30.5094 88.7305 30.1099C88.0042 29.7105 87.4413 29.1113 87.0237 28.3487C86.6061 27.586 86.4063 26.7326 86.4063 25.7521C86.4063 25.044 86.5153 24.3721 86.7513 23.7366C86.9874 23.1193 87.3142 22.5745 87.7318 22.1206C88.1313 21.6848 88.6397 21.3217 89.2208 21.0675C89.8018 20.8132 90.4555 20.668 91.1455 20.668C92.471 20.668 93.5786 21.1401 94.4683 22.0661C95.3399 23.0103 95.7938 24.2269 95.7938 25.7521C95.7938 27.2229 95.358 28.4213 94.4865 29.3292C93.6149 30.2552 92.5073 30.7092 91.1455 30.7092ZM113.749 16.6007L109.591 27.8402H109.536L105.088 16.6007H100.003L107.267 33.6325L104.034 42.1121H109.01L118.797 16.6007H113.749ZM132.539 7.3766V18.6525H132.448C131.068 17.0909 129.253 16.292 126.965 16.292C125.766 16.292 124.622 16.528 123.569 17.0001C122.516 17.4722 121.608 18.1259 120.846 18.943C120.083 19.7783 119.502 20.7769 119.066 21.939C118.63 23.1193 118.412 24.3903 118.412 25.734C118.412 26.5329 118.485 27.2955 118.63 28.0218C118.776 28.7481 118.975 29.42 119.248 30.0373C119.52 30.6547 119.847 31.2357 120.246 31.7623C120.628 32.307 121.063 32.761 121.572 33.1604C122.062 33.5599 122.589 33.9049 123.17 34.1954C123.751 34.4859 124.368 34.7038 125.04 34.8491C125.694 34.9943 126.384 35.067 127.11 35.067C129.489 35.067 131.341 34.2317 132.666 32.5612H132.775V34.7583H137.405V7.3766H132.539ZM128 30.7092C126.62 30.7092 125.512 30.2552 124.64 29.3292C123.769 28.4213 123.351 27.2229 123.351 25.7521C123.351 24.2269 123.787 23.0103 124.677 22.0661C125.567 21.1401 126.674 20.668 128.018 20.668C129.398 20.668 130.524 21.1582 131.431 22.1206C132.339 23.1011 132.793 24.2995 132.793 25.7521C132.793 26.7326 132.575 27.586 132.14 28.3487C131.704 29.1113 131.141 29.7105 130.415 30.1099C129.688 30.5094 128.871 30.7092 128 30.7092Z" fill="white"/>
<path d="M33.878 14.202C33.5562 14.202 33.2344 14.09 32.9759 13.8586C29.8522 11.0729 25.8446 9.5382 21.6923 9.5382C17.54 9.5382 13.5324 11.0729 10.4087 13.8586C9.85012 14.3539 8.99147 14.3105 8.49435 13.7483C7.99543 13.1897 8.04424 12.3311 8.60462 11.834C12.2254 8.60543 16.873 6.82666 21.6923 6.82666C26.5116 6.82666 31.1592 8.60543 34.78 11.834C35.3404 12.3329 35.3892 13.1897 34.8903 13.7483C34.6227 14.0484 34.2504 14.202 33.878 14.202Z" fill="white"/>
<path d="M35.7037 21.0912C35.2717 21.0912 34.8469 20.8851 34.5848 20.5018C31.6455 16.2212 26.8262 13.6652 21.6923 13.6652C16.5585 13.6652 11.7392 16.2212 8.79985 20.5037C8.37685 21.1183 7.53628 21.2828 6.91443 20.8543C6.29801 20.4313 6.14074 19.5872 6.56555 18.9707C10.0092 13.949 15.6637 10.9536 21.6923 10.9536C27.721 10.9536 33.3754 13.9508 36.8191 18.9689C37.2421 19.5853 37.0848 20.4295 36.4702 20.8525C36.2352 21.0152 35.9659 21.0912 35.7037 21.0912Z" fill="white"/>
<path d="M18.2884 41.1726C17.945 41.1726 17.5997 41.0425 17.3358 40.7822C17.0972 40.5472 11.4879 34.9433 11.4879 29.5022C11.4879 23.8242 16.065 19.2056 21.6941 19.2056C27.3233 19.2056 31.9003 23.8242 31.9003 29.5022C31.9003 30.2506 31.293 30.858 30.5446 30.858C29.7962 30.858 29.1888 30.2506 29.1888 29.5022C29.1888 25.321 25.8283 21.9171 21.6941 21.9171C17.5599 21.9171 14.1994 25.3192 14.1994 29.5022C14.1994 33.8081 19.1941 38.8046 19.2429 38.8534C19.7743 39.3812 19.7798 40.2381 19.2537 40.7713C18.988 41.0389 18.6391 41.1726 18.2884 41.1726Z" fill="white"/>
<path d="M25.0962 41.1735C22.4244 41.1735 16.2349 36.2222 15.6365 30.707C15.4232 28.7185 16.036 26.7535 17.3177 25.3182C18.4529 24.0456 19.9949 23.3406 21.6616 23.3316C23.3463 23.3659 24.8323 23.9552 25.9928 25.1103C27.1678 26.2781 27.8149 27.8382 27.8149 29.5012V30.1882C27.8149 31.7157 29.0406 32.9593 30.5446 32.9593C32.0486 32.9593 33.2742 31.7157 33.2742 30.1882V29.9477C33.2742 23.5413 28.5272 18.2104 22.4678 17.8163C19.2338 17.5994 16.1788 18.7039 13.8252 20.9075C11.4662 23.1183 10.1122 26.251 10.1122 29.5012C10.1122 32.2182 11.054 34.8647 12.7605 36.9543C13.2341 37.5346 13.1473 38.3878 12.5689 38.8615C11.9886 39.3369 11.1354 39.2483 10.6599 38.6698C8.55941 36.0975 7.40068 32.84 7.40068 29.5012C7.40068 25.5026 9.06737 21.6486 11.9705 18.928C14.8773 16.2057 18.6771 14.8499 22.6395 15.1102C30.1216 15.6001 35.9803 22.1168 35.9803 29.9477V30.1882C35.9803 33.2106 33.5381 35.6709 30.5391 35.6709C27.5402 35.6709 25.098 33.2124 25.098 30.1882V29.5012C25.098 28.5648 24.7346 27.6881 24.0766 27.0319C23.4367 26.3938 22.5889 26.0431 21.6905 26.0431C21.6833 26.0431 21.6778 26.0431 21.6724 26.0431C20.5336 26.0485 19.7743 26.6342 19.3369 27.1241C18.5758 27.9773 18.1998 29.2066 18.33 30.4159C18.7819 34.5646 23.7766 38.462 25.0962 38.462C25.8446 38.462 26.452 39.0693 26.452 39.8177C26.452 40.5661 25.8446 41.1735 25.0962 41.1735Z" fill="white"/>
<path d="M29.0966 39.1109C25.0908 39.1109 20.2516 34.5175 20.2516 28.8143C20.2516 28.0659 20.859 27.4585 21.6073 27.4585C22.3557 27.4585 22.9631 28.0659 22.9631 28.8143C22.9631 33.0009 26.6743 36.3993 29.0966 36.3993C29.845 36.3993 30.4524 37.0067 30.4524 37.7551C30.4524 38.5035 29.845 39.1109 29.0966 39.1109Z" fill="white"/>
</svg>
