<svg width="41" height="42" viewBox="0 0 41 42" fill="none" xmlns="http://www.w3.org/2000/svg">
<circle cx="20.5192" cy="20.9998" r="20.4808" fill="white"/>
<path d="M24.2526 13.5323C25.2419 13.5353 26.1899 13.9296 26.8895 14.6292C27.589 15.3287 27.9834 16.2767 27.9863 17.2661V24.7327C27.9834 25.7221 27.589 26.6701 26.8895 27.3696C26.1899 28.0692 25.2419 28.4635 24.2526 28.4665H16.7859C15.7966 28.4635 14.8486 28.0692 14.149 27.3696C13.4494 26.6701 13.0551 25.7221 13.0522 24.7327V17.2661C13.0551 16.2767 13.4494 15.3287 14.149 14.6292C14.8486 13.9296 15.7966 13.5353 16.7859 13.5323H24.2526ZM24.2526 12.0391H16.7859C13.911 12.0391 11.5589 14.3912 11.5589 17.2661V24.7327C11.5589 27.6076 13.911 29.9597 16.7859 29.9597H24.2526C27.1275 29.9597 29.4796 27.6076 29.4796 24.7327V17.2661C29.4796 14.3912 27.1275 12.0391 24.2526 12.0391Z" fill="black"/>
<path d="M25.3726 17.266C25.1511 17.266 24.9346 17.2003 24.7504 17.0772C24.5662 16.9541 24.4226 16.7792 24.3379 16.5745C24.2531 16.3699 24.2309 16.1447 24.2741 15.9274C24.3173 15.7101 24.424 15.5106 24.5806 15.3539C24.7373 15.1973 24.9369 15.0906 25.1541 15.0474C25.3714 15.0042 25.5966 15.0264 25.8013 15.1111C26.0059 15.1959 26.1808 15.3395 26.3039 15.5237C26.427 15.7078 26.4927 15.9244 26.4927 16.1459C26.493 16.2931 26.4642 16.4389 26.4081 16.5749C26.3519 16.7109 26.2694 16.8345 26.1653 16.9386C26.0613 17.0427 25.9377 17.1252 25.8016 17.1813C25.6656 17.2375 25.5198 17.2663 25.3726 17.266Z" fill="black"/>
<path d="M20.5192 18.0128C21.11 18.0128 21.6875 18.188 22.1787 18.5162C22.6699 18.8444 23.0527 19.3109 23.2788 19.8567C23.5049 20.4024 23.564 21.003 23.4488 21.5824C23.3335 22.1618 23.049 22.694 22.6313 23.1118C22.2136 23.5295 21.6814 23.814 21.102 23.9292C20.5225 24.0445 19.922 23.9853 19.3762 23.7592C18.8304 23.5332 18.3639 23.1503 18.0357 22.6591C17.7075 22.1679 17.5323 21.5905 17.5323 20.9997C17.5332 20.2078 17.8481 19.4485 18.4081 18.8886C18.9681 18.3286 19.7273 18.0136 20.5192 18.0128ZM20.5192 16.5195C19.6331 16.5195 18.7669 16.7823 18.0302 17.2746C17.2934 17.7669 16.7192 18.4666 16.3801 19.2852C16.041 20.1039 15.9523 21.0047 16.1251 21.8737C16.298 22.7428 16.7247 23.5411 17.3513 24.1677C17.9778 24.7942 18.7761 25.2209 19.6452 25.3938C20.5143 25.5667 21.4151 25.4779 22.2337 25.1388C23.0524 24.7997 23.7521 24.2255 24.2444 23.4887C24.7366 22.752 24.9994 21.8858 24.9994 20.9997C24.9994 19.8115 24.5274 18.6719 23.6872 17.8317C22.847 16.9915 21.7074 16.5195 20.5192 16.5195Z" fill="black"/>
</svg>
