<svg width="41" height="41" viewBox="0 0 41 41" fill="none" xmlns="http://www.w3.org/2000/svg">
<circle cx="20.4808" cy="20.4808" r="20.4808" fill="white"/>
<path d="M28.354 11.0391H13.3978C12.5806 11.0391 11.8666 11.6271 11.8666 12.4347V27.4241C11.8666 28.2361 12.5806 28.9597 13.3978 28.9597H28.3496C29.1712 28.9597 29.7872 28.2313 29.7872 27.4241V12.4347C29.792 11.6271 29.1712 11.0391 28.354 11.0391ZM17.4216 25.9768H14.8543V17.9945H17.4216V25.9768ZM16.2267 16.7809H16.2083C15.3867 16.7809 14.8547 16.1693 14.8547 15.4036C14.8547 14.624 15.4007 14.0268 16.2407 14.0268C17.0808 14.0268 17.5948 14.6196 17.6132 15.4036C17.6128 16.1693 17.0808 16.7809 16.2267 16.7809ZM26.8043 25.9768H24.237V21.6123C24.237 20.5666 23.8634 19.8522 22.9346 19.8522C22.225 19.8522 21.8049 20.3322 21.6181 20.7998C21.5481 20.9678 21.5293 21.1966 21.5293 21.4303V25.9768H18.962V17.9945H21.5293V19.1054C21.903 18.5733 22.4866 17.8077 23.8446 17.8077C25.5299 17.8077 26.8047 18.9186 26.8047 21.3134L26.8043 25.9768Z" fill="black"/>
</svg>
