<svg width="20" height="20" viewBox="0 0 20 20" fill="none" xmlns="http://www.w3.org/2000/svg">
<path d="M14.9938 6.71243C14.6859 6.38782 14.1727 6.37352 13.8476 6.68216L8.67134 11.5911L6.20244 9.05621C5.88974 8.73539 5.37705 8.72836 5.05595 9.0411C4.73513 9.35352 4.72837 9.86676 5.0408 10.1876L8.06783 13.2954C8.22646 13.4584 8.43728 13.5405 8.64865 13.5405C8.84919 13.5405 9.04974 13.4665 9.20677 13.3181L14.9635 7.85868C15.2884 7.55055 15.3021 7.03731 14.9938 6.71243Z" fill="#23D8FF"/>
<path d="M10 0C4.48594 0 0 4.48594 0 10C0 15.5141 4.48594 20 10 20C15.5141 20 20 15.5141 20 10C20 4.48594 15.5141 0 10 0ZM10 18.3784C5.38027 18.3784 1.6216 14.62 1.6216 10C1.6216 5.38027 5.38023 1.6216 10 1.6216C14.62 1.6216 18.3784 5.38023 18.3784 10C18.3784 14.62 14.62 18.3784 10 18.3784Z" fill="#23D8FF"/>
</svg>
