<svg width="41" height="42" viewBox="0 0 41 42" fill="none" xmlns="http://www.w3.org/2000/svg">
<circle cx="20.4808" cy="20.9998" r="20.4808" fill="white"/>
<g clip-path="url(#clip0)">
<path d="M30.0811 15.1394C29.3609 15.4524 28.5988 15.6585 27.819 15.7514C28.6385 15.2716 29.2548 14.5092 29.5523 13.6074C28.7775 14.0604 27.9313 14.3783 27.0498 14.5474C26.6786 14.1584 26.2322 13.8489 25.7377 13.6378C25.2432 13.4267 24.711 13.3183 24.1733 13.3193C21.9964 13.3193 20.2348 15.0554 20.2348 17.1955C20.2332 17.4932 20.2673 17.79 20.3364 18.0795C18.7754 18.0063 17.2469 17.6081 15.8486 16.9104C14.4503 16.2126 13.2131 15.2307 12.2161 14.0274C11.8663 14.617 11.6813 15.2898 11.6804 15.9754C11.6804 17.3195 12.3817 18.5075 13.4405 19.2036C12.8132 19.1887 12.1987 19.0226 11.6492 18.7195V18.7675C11.6492 20.6476 13.0093 22.2117 14.8093 22.5677C14.4708 22.6579 14.122 22.7036 13.7717 22.7037C13.5231 22.7041 13.2751 22.68 13.0313 22.6317C13.5317 24.1718 14.9882 25.2918 16.7134 25.3238C15.3115 26.4042 13.5904 26.9882 11.8204 26.9839C11.5063 26.9834 11.1924 26.9647 10.8804 26.9279C12.6809 28.0776 14.7739 28.6857 16.9102 28.6799C24.1649 28.6799 28.1283 22.7717 28.1283 17.6475C28.1283 17.4795 28.1238 17.3115 28.1159 17.1475C28.8851 16.6003 29.5506 15.9203 30.0811 15.1394Z" fill="black"/>
</g>
<defs>
<clipPath id="clip0">
<rect width="20.4808" height="20.4808" fill="white" transform="translate(10.2404 10.7593)"/>
</clipPath>
</defs>
</svg>
